<svg width="20" height="17" viewBox="0 0 20 17" fill="none" xmlns="http://www.w3.org/2000/svg">
<path d="M19.13 5.45345L10.8488 2.6986C10.2922 2.51372 9.70813 2.51372 9.15156 2.6986L0.870313 5.45345C0.341875 5.62932 0 6.10904 0 6.67557C0 7.2421 0.341875 7.72182 0.87 7.8977L1.79844 8.20637C1.69531 8.40507 1.61906 8.61889 1.56938 8.84299C1.23531 9.00954 1 9.35454 1 9.76224C1 10.1715 1.23656 10.5185 1.57281 10.6841L1.00875 14.2807C0.958437 14.6019 1.13094 14.9067 1.36312 14.9067H2.63656C2.86875 14.9067 3.04156 14.6019 2.99094 14.2807L2.42719 10.6841C2.76344 10.5185 3 10.1715 3 9.76224C3 9.42142 2.82844 9.13397 2.58031 8.94652C2.62687 8.79669 2.69906 8.66165 2.78562 8.53465L4.45656 9.09057L4 12.8489C4 13.9855 6.68625 14.9067 10 14.9067C13.3138 14.9067 16 13.9855 16 12.8489L15.5434 9.09057L19.13 7.89738C19.6581 7.72182 20 7.2421 20 6.67557C20 6.10904 19.6581 5.62932 19.13 5.45345ZM14.9838 12.7801C14.6475 13.1444 12.9388 13.8778 10 13.8778C7.06125 13.8778 5.3525 13.1444 5.01625 12.7801L5.42531 9.41274L9.15156 10.6522C9.23281 10.6792 9.95531 10.949 10.8488 10.6522L14.575 9.41274L14.9838 12.7801ZM18.8213 6.91929L10.54 9.67414C10.1866 9.79182 9.81344 9.79182 9.46 9.67414L3.97031 7.84786L10.0919 6.66657C10.3634 6.61448 10.5422 6.34568 10.4913 6.06628C10.4406 5.78655 10.1737 5.6036 9.90812 5.65569L3.54 6.88392C3.1525 6.95852 2.80531 7.12989 2.50625 7.36075L1.17844 6.91897C0.933125 6.83698 0.945312 6.50934 1.17844 6.43185L9.45969 3.677C9.93156 3.5201 10.3297 3.60723 10.5397 3.677L18.8209 6.43185C19.0519 6.5087 19.0681 6.83698 18.8213 6.91929Z" fill="white"/>
</svg>
