<svg width="17" height="18" viewBox="0 0 17 18" fill="none" xmlns="http://www.w3.org/2000/svg">
<rect x="0.5" y="0.533325" width="16" height="16.4911" stroke="white"/>
<path d="M5.3125 7.44998C5.3125 7.14935 5.55156 6.90338 5.84375 6.90338H10.625V3.69554C10.625 3.45299 10.9105 3.33 11.0766 3.50081L15.7781 8.38944C15.9873 8.60467 15.9873 8.94971 15.7781 9.16493L11.0766 14.0536C10.9105 14.2244 10.625 14.1048 10.625 13.8588V10.651H5.84375C5.55156 10.651 5.3125 10.405 5.3125 10.1044V7.44998ZM4.25 7.44998V10.1044C4.25 11.0097 4.96387 11.7442 5.84375 11.7442H9.5625V13.8588C9.5625 15.0716 10.9902 15.6865 11.827 14.8256L16.5318 9.94041C17.1561 9.29816 17.1561 8.25963 16.5318 7.61737L11.827 2.72875C10.9936 1.87127 9.5625 2.47936 9.5625 3.69554V5.81019H5.84375C4.96387 5.81019 4.25 6.54809 4.25 7.44998ZM0 3.85952V13.6983C0 14.6036 0.713867 15.3381 1.59375 15.3381H5.97656C6.1957 15.3381 6.375 15.1536 6.375 14.9281V14.6548C6.375 14.4293 6.1957 14.2449 5.97656 14.2449H1.59375C1.30156 14.2449 1.0625 13.9989 1.0625 13.6983V3.85952C1.0625 3.55889 1.30156 3.31292 1.59375 3.31292H5.97656C6.1957 3.31292 6.375 3.12844 6.375 2.90297V2.62967C6.375 2.4042 6.1957 2.21973 5.97656 2.21973H1.59375C0.713867 2.21973 0 2.95422 0 3.85952Z" fill="black"/>
</svg>
